LG_Walk_Slower02																		
version=1																		
nRows=30																		
nColumns=19																		
inDegrees=yes																		
endheader																		
time	ground_force2_vx	ground_force2_vy	ground_force2_vz	ground_force2_px	ground_force2_py	ground_force2_pz	ground_torque2_x	ground_torque2_y	ground_torque2_z	ground_force1_vx	ground_force1_vy	ground_force1_vz	ground_force1_px	ground_force1_py	ground_force1_pz	ground_torque1_x	ground_torque1_y	ground_torque1_z
5.79	2.33556	134.23941	17.086155	0.153315	0	-0.229874	2.00E-06	0.628728	1.00E-06	61.968418	661.46875	-55.851978	-0.098722	0	0.198441	-1.00E-05	-0.089383	-6.00E-06
5.791	2.340611	140.289169	17.869299	0.15195	0	-0.227279	2.00E-06	0.660017	2.00E-06	60.950588	661.46875	-55.851978	-0.098504	0	0.198135	-7.00E-06	-0.058592	-6.00E-06
5.792	2.340611	144.945648	17.94767	0.151519	0	-0.227123	0.00E+00	0.660017	1.00E-06	60.794163	661.997559	-56.008553	-0.098722	0	0.198135	-7.00E-06	0.028187	-1.00E-06
5.793	2.340611	146.846115	18.809507	0.151657	0	-0.225615	1.00E-06	0.639327	2.00E-06	60.323448	661.997559	-56.243465	-0.098585	0	0.19825	-7.00E-06	0.028187	-1.00E-06
5.794	3.126337	151.84668	19.436234	0.151657	0	-0.225615	1.00E-06	0.639327	2.00E-06	60.167027	659.765381	-56.165134	-0.098585	0	0.19825	-7.00E-06	-0.036969	-2.00E-06
5.795	3.127058	157.355957	19.671143	0.151657	0	-0.22529	2.00E-06	0.750345	2.00E-06	59.773441	658.218994	-56.243385	-0.098585	0	0.197902	-7.00E-06	-0.036969	-2.00E-06
5.796	3.207074	158.748459	20.062956	0.150854	0	-0.228322	2.00E-06	0.750345	2.00E-06	58.991322	655.6427	-56.243385	-0.098578	0	0.19764	-3.00E-06	0.085617	-2.00E-06
5.797	3.440627	165.295334	20.532698	0.150198	0	-0.226765	1.00E-06	0.750345	2.00E-06	58.679199	655.6427	-56.71349	-0.098607	0	0.197902	-1.10E-05	0.085617	-4.00E-06
5.798	3.523529	168.401215	20.532698	0.149799	0	-0.227999	1.00E-06	0.740637	1.00E-06	58.59774	652.873962	-56.71349	-0.098578	0	0.198089	-8.00E-06	0.015112	-5.00E-06
5.799	4.4664	173.40213	20.454086	0.149799	0	-0.227505	3.00E-06	0.718873	1.00E-06	58.360577	652.873962	-56.71349	-0.09841	0	0.198089	-1.10E-05	0.015112	-5.00E-06
5.8	4.467121	178.229858	20.297306	0.150931	0	-0.227999	3.00E-06	0.698453	2.00E-06	57.18848	651.349243	-57.105427	-0.09841	0	0.196964	-8.00E-06	-0.026325	-5.00E-06
5.801	4.702117	184.258743	20.297306	0.151594	0	-0.22829	4.00E-06	0.698453	2.00E-06	57.107025	647.220764	-57.183716	-0.09841	0	0.196619	-5.00E-06	-0.026325	-6.00E-06
5.802	5.015687	187.552063	20.297102	0.151594	0	-0.228551	2.00E-06	0.698453	2.00E-06	57.107746	644.818542	-57.183716	-0.098613	0	0.196107	-5.00E-06	-0.12573	-6.00E-06
5.803	5.250682	193.403503	19.98358	0.150054	0	-0.22829	4.00E-06	0.817389	3.00E-06	57.107746	642.749817	-57.183716	-0.09837	0	0.196107	-8.00E-06	-0.12573	-6.00E-06
5.804	5.957113	196.347778	20.297102	0.150054	0	-0.22814	3.00E-06	0.817389	3.00E-06	57.107746	642.580505	-57.183716	-0.098326	0	0.196529	-9.00E-06	-0.04445	-3.00E-06
5.805	5.957113	202.037964	20.140121	0.14975	0	-0.22814	3.00E-06	0.73617	2.00E-06	56.482052	642.384155	-57.418629	-0.097981	0	0.196529	-8.00E-06	0.098844	-3.00E-06
5.806	5.652205	206.341507	20.140121	0.150525	0	-0.228188	3.00E-06	0.598209	2.00E-06	55.464939	638.101868	-57.653782	-0.097981	0	0.195962	-9.00E-06	0.098844	-3.00E-06
5.807	5.573632	213.40332	20.140121	0.14975	0	-0.231338	1.00E-06	0.598209	2.00E-06	55.149929	637.254395	-57.653782	-0.098183	0	0.195962	-1.00E-05	0.067139	-3.00E-06
5.808	5.652205	220.464432	20.68803	0.150216	0	-0.231338	2.00E-06	0.646234	1.00E-06	55.071358	636.896851	-57.653782	-0.098183	0	0.195962	-1.00E-05	0.067139	-3.00E-06
5.809	5.968659	224.101044	20.844933	0.150216	0	-0.231338	2.00E-06	0.646234	0	55.149929	633.282227	-57.496716	-0.097729	0	0.195642	-8.00E-06	0.067139	-3.00E-06
5.81	5.971545	229.277039	20.84425	0.150615	0	-0.232604	2.00E-06	0.605374	0	55.071358	626.928589	-58.123798	-0.09752	0	0.195151	-5.00E-06	0.078607	-3.00E-06
5.811	5.971545	233.422821	20.922981	0.150734	0	-0.232604	2.00E-06	0.565973	1.00E-06	54.522789	626.91272	-57.810356	-0.097729	0	0.194549	-5.00E-06	0.078607	-3.00E-06
5.812	5.351624	235.500748	21.235943	0.150734	0	-0.231815	2.00E-06	0.565973	2.00E-06	52.876373	626.91272	-58.123798	-0.09788	0	0.195151	-5.00E-06	0.097457	-3.00E-06
5.813	5.351624	239.108795	22.019529	0.150358	0	-0.229921	2.00E-06	0.502608	3.00E-06	52.876373	625.717651	-58.201931	-0.098046	0	0.195857	-1.20E-05	0.189983	-3.00E-06
5.814	5.430918	240.670258	22.019529	0.150201	0	-0.231815	3.00E-06	0.408654	3.00E-06	52.876373	625.717651	-58.358913	-0.098046	0	0.195857	-1.20E-05	0.097457	-4.00E-06
5.815	5.978039	246.000916	22.176512	0.150158	0	-0.231668	3.00E-06	0.408654	3.00E-06	52.799244	620.062256	-58.358913	-0.09778	0	0.194621	-2.00E-06	0.086149	-4.00E-06
5.816	5.977318	247.562347	22.489794	0.150158	0	-0.231668	2.00E-06	0.622936	2.00E-06	52.406384	619.863953	-58.515453	-0.097645	0	0.194621	-2.00E-06	0.086149	-4.00E-06
5.817	5.977318	250.507385	23.586542	0.150366	0	-0.231668	2.00E-06	0.622936	1.00E-06	52.247791	618.312927	-58.593746	-0.09778	0	0.194616	-4.00E-06	0.090072	-5.00E-06
5.818	5.977318	250.844482	23.586582	0.150734	0	-0.231937	4.00E-06	0.404528	1.00E-06	51.386383	616.611084	-58.593746	-0.097839	0	0.194619	-5.00E-06	0.090491	-5.00E-06
5.819	5.978762	254.11734	24.213509	0.150366	0	-0.232007	4.00E-06	0.404528	2.00E-06	50.919277	614.531982	-58.985561	-0.097839	0	0.194619	-9.00E-06	0.183666	-5.00E-06
